<svg id="visual" viewBox="0 0 960 540" width="960" height="540" xmlns="http://www.w3.org/2000/svg" xmlns:xlink="http://www.w3.org/1999/xlink" version="1.1"><rect x="0" y="0" width="960" height="540" fill="#ffffff"></rect><defs><linearGradient id="grad1_0" x1="43.8%" y1="0%" x2="100%" y2="100%"><stop offset="14.444444444444446%" stop-color="#fbae3c" stop-opacity="1"></stop><stop offset="85.55555555555554%" stop-color="#fbae3c" stop-opacity="1"></stop></linearGradient></defs><defs><linearGradient id="grad1_1" x1="43.8%" y1="0%" x2="100%" y2="100%"><stop offset="14.444444444444446%" stop-color="#fbae3c" stop-opacity="1"></stop><stop offset="85.55555555555554%" stop-color="#ffb95b" stop-opacity="1"></stop></linearGradient></defs><defs><linearGradient id="grad1_2" x1="43.8%" y1="0%" x2="100%" y2="100%"><stop offset="14.444444444444446%" stop-color="#ffc577" stop-opacity="1"></stop><stop offset="85.55555555555554%" stop-color="#ffb95b" stop-opacity="1"></stop></linearGradient></defs><defs><linearGradient id="grad1_3" x1="43.8%" y1="0%" x2="100%" y2="100%"><stop offset="14.444444444444446%" stop-color="#ffc577" stop-opacity="1"></stop><stop offset="85.55555555555554%" stop-color="#ffd092" stop-opacity="1"></stop></linearGradient></defs><defs><linearGradient id="grad1_4" x1="43.8%" y1="0%" x2="100%" y2="100%"><stop offset="14.444444444444446%" stop-color="#ffdcad" stop-opacity="1"></stop><stop offset="85.55555555555554%" stop-color="#ffd092" stop-opacity="1"></stop></linearGradient></defs><defs><linearGradient id="grad1_5" x1="43.8%" y1="0%" x2="100%" y2="100%"><stop offset="14.444444444444446%" stop-color="#ffdcad" stop-opacity="1"></stop><stop offset="85.55555555555554%" stop-color="#ffe7c8" stop-opacity="1"></stop></linearGradient></defs><defs><linearGradient id="grad1_6" x1="43.8%" y1="0%" x2="100%" y2="100%"><stop offset="14.444444444444446%" stop-color="#fff3e3" stop-opacity="1"></stop><stop offset="85.55555555555554%" stop-color="#ffe7c8" stop-opacity="1"></stop></linearGradient></defs><defs><linearGradient id="grad1_7" x1="43.8%" y1="0%" x2="100%" y2="100%"><stop offset="14.444444444444446%" stop-color="#fff3e3" stop-opacity="1"></stop><stop offset="85.55555555555554%" stop-color="#ffffff" stop-opacity="1"></stop></linearGradient></defs><defs><linearGradient id="grad2_0" x1="0%" y1="0%" x2="56.3%" y2="100%"><stop offset="14.444444444444446%" stop-color="#fbae3c" stop-opacity="1"></stop><stop offset="85.55555555555554%" stop-color="#fbae3c" stop-opacity="1"></stop></linearGradient></defs><defs><linearGradient id="grad2_1" x1="0%" y1="0%" x2="56.3%" y2="100%"><stop offset="14.444444444444446%" stop-color="#ffb95b" stop-opacity="1"></stop><stop offset="85.55555555555554%" stop-color="#fbae3c" stop-opacity="1"></stop></linearGradient></defs><defs><linearGradient id="grad2_2" x1="0%" y1="0%" x2="56.3%" y2="100%"><stop offset="14.444444444444446%" stop-color="#ffb95b" stop-opacity="1"></stop><stop offset="85.55555555555554%" stop-color="#ffc577" stop-opacity="1"></stop></linearGradient></defs><defs><linearGradient id="grad2_3" x1="0%" y1="0%" x2="56.3%" y2="100%"><stop offset="14.444444444444446%" stop-color="#ffd092" stop-opacity="1"></stop><stop offset="85.55555555555554%" stop-color="#ffc577" stop-opacity="1"></stop></linearGradient></defs><defs><linearGradient id="grad2_4" x1="0%" y1="0%" x2="56.3%" y2="100%"><stop offset="14.444444444444446%" stop-color="#ffd092" stop-opacity="1"></stop><stop offset="85.55555555555554%" stop-color="#ffdcad" stop-opacity="1"></stop></linearGradient></defs><defs><linearGradient id="grad2_5" x1="0%" y1="0%" x2="56.3%" y2="100%"><stop offset="14.444444444444446%" stop-color="#ffe7c8" stop-opacity="1"></stop><stop offset="85.55555555555554%" stop-color="#ffdcad" stop-opacity="1"></stop></linearGradient></defs><defs><linearGradient id="grad2_6" x1="0%" y1="0%" x2="56.3%" y2="100%"><stop offset="14.444444444444446%" stop-color="#ffe7c8" stop-opacity="1"></stop><stop offset="85.55555555555554%" stop-color="#fff3e3" stop-opacity="1"></stop></linearGradient></defs><defs><linearGradient id="grad2_7" x1="0%" y1="0%" x2="56.3%" y2="100%"><stop offset="14.444444444444446%" stop-color="#ffffff" stop-opacity="1"></stop><stop offset="85.55555555555554%" stop-color="#fff3e3" stop-opacity="1"></stop></linearGradient></defs><g transform="translate(960, 0)"><path d="M0 513C-26.2 507.5 -52.4 502.1 -78.7 496.8C-105 491.5 -131.5 486.4 -154.2 474.6C-176.9 462.7 -195.9 444.1 -222.5 436.6C-249 429.1 -283.2 432.7 -301.5 415C-319.8 397.3 -322.2 358.4 -329.5 329.5C-336.8 300.7 -349.1 281.9 -364.9 265.1C-380.6 248.3 -399.8 233.4 -425 216.6C-450.2 199.7 -481.4 180.9 -476.5 154.8C-471.6 128.7 -430.6 95.2 -430.6 68.2C-430.7 41.2 -471.9 20.6 -513 0L0 0Z" fill="#fff9f1"></path><path d="M0 448.9C-22.9 444.1 -45.8 439.3 -68.9 434.7C-91.9 430.1 -115 425.6 -134.9 415.3C-154.8 404.9 -171.4 388.6 -194.6 382C-217.9 375.5 -247.8 378.6 -263.8 363.1C-279.8 347.7 -281.9 313.6 -288.3 288.3C-294.7 263.1 -305.5 246.7 -319.3 232C-333 217.2 -349.8 204.2 -371.9 189.5C-393.9 174.8 -421.2 158.3 -416.9 135.5C-412.6 112.6 -376.7 83.3 -376.8 59.7C-376.9 36 -412.9 18 -448.9 0L0 0Z" fill="#ffedd6"></path><path d="M0 384.8C-19.6 380.7 -39.3 376.6 -59 372.6C-78.8 368.6 -98.6 364.8 -115.6 355.9C-132.7 347 -146.9 333.1 -166.8 327.4C-186.8 321.8 -212.4 324.5 -226.2 311.3C-239.9 298 -241.6 268.8 -247.1 247.1C-252.6 225.5 -261.8 211.4 -273.6 198.8C-285.5 186.2 -299.9 175 -318.8 162.4C-337.7 149.8 -361 135.7 -357.4 116.1C-353.7 96.5 -322.9 71.4 -323 51.2C-323 30.9 -353.9 15.4 -384.7 0L0 0Z" fill="#ffe1ba"></path><path d="M0 320.6C-16.4 317.2 -32.7 313.8 -49.2 310.5C-65.6 307.2 -82.2 304 -96.4 296.6C-110.6 289.2 -122.4 277.6 -139 272.9C-155.6 268.2 -177 270.4 -188.5 259.4C-199.9 248.3 -201.4 224 -205.9 205.9C-210.5 187.9 -218.2 176.2 -228 165.7C-237.9 155.2 -249.9 145.9 -265.6 135.3C-281.4 124.8 -300.9 113.1 -297.8 96.8C-294.7 80.4 -269.1 59.5 -269.1 42.6C-269.2 25.7 -294.9 12.9 -320.6 0L0 0Z" fill="#ffd69f"></path><path d="M0 256.5C-13.1 253.8 -26.2 251 -39.3 248.4C-52.5 245.8 -65.7 243.2 -77.1 237.3C-88.5 231.4 -97.9 222 -111.2 218.3C-124.5 214.5 -141.6 216.4 -150.8 207.5C-159.9 198.7 -161.1 179.2 -164.8 164.8C-168.4 150.3 -174.6 141 -182.4 132.5C-190.3 124.1 -199.9 116.7 -212.5 108.3C-225.1 99.9 -240.7 90.5 -238.2 77.4C-235.8 64.3 -215.3 47.6 -215.3 34.1C-215.4 20.6 -235.9 10.3 -256.5 0L0 0Z" fill="#ffca84"></path><path d="M0 192.4C-9.8 190.3 -19.6 188.3 -29.5 186.3C-39.4 184.3 -49.3 182.4 -57.8 178C-66.3 173.5 -73.5 166.5 -83.4 163.7C-93.4 160.9 -106.2 162.3 -113.1 155.6C-119.9 149 -120.8 134.4 -123.6 123.6C-126.3 112.7 -130.9 105.7 -136.8 99.4C-142.7 93.1 -149.9 87.5 -159.4 81.2C-168.8 74.9 -180.5 67.9 -178.7 58.1C-176.8 48.3 -161.5 35.7 -161.5 25.6C-161.5 15.4 -176.9 7.7 -192.4 0L0 0Z" fill="#ffbf69"></path><path d="M0 128.3C-6.5 126.9 -13.1 125.5 -19.7 124.2C-26.3 122.9 -32.9 121.6 -38.5 118.6C-44.2 115.7 -49 111 -55.6 109.1C-62.3 107.3 -70.8 108.2 -75.4 103.8C-80 99.3 -80.5 89.6 -82.4 82.4C-84.2 75.2 -87.3 70.5 -91.2 66.3C-95.2 62.1 -100 58.3 -106.3 54.1C-112.6 49.9 -120.3 45.2 -119.1 38.7C-117.9 32.2 -107.6 23.8 -107.7 17.1C-107.7 10.3 -118 5.1 -128.2 0L0 0Z" fill="#fdb44c"></path><path d="M0 64.1C-3.3 63.4 -6.5 62.8 -9.8 62.1C-13.1 61.4 -16.4 60.8 -19.3 59.3C-22.1 57.8 -24.5 55.5 -27.8 54.6C-31.1 53.6 -35.4 54.1 -37.7 51.9C-40 49.7 -40.3 44.8 -41.2 41.2C-42.1 37.6 -43.6 35.2 -45.6 33.1C-47.6 31 -50 29.2 -53.1 27.1C-56.3 25 -60.2 22.6 -59.6 19.4C-58.9 16.1 -53.8 11.9 -53.8 8.5C-53.8 5.1 -59 2.6 -64.1 0L0 0Z" fill="#fbae3c"></path></g><g transform="translate(0, 540)"><path d="M0 -513C28.2 -514.7 56.3 -516.4 79 -498.8C101.7 -481.2 118.9 -444.4 137.8 -424.2C156.8 -403.9 177.5 -400.3 204.7 -401.8C232 -403.4 265.9 -410.1 292.1 -402.1C318.3 -394.1 336.8 -371.3 342.2 -342.2C347.6 -313.2 339.9 -277.8 356 -258.6C372 -239.4 411.9 -236.4 433.9 -221.1C455.9 -205.8 460.1 -178.1 470.8 -153C481.4 -127.9 498.6 -105.3 506.7 -80.3C514.8 -55.2 513.9 -27.6 513 0L0 0Z" fill="#fff9f1"></path><path d="M0 -448.9C24.6 -450.3 49.3 -451.8 69.1 -436.4C89 -421.1 104 -388.8 120.6 -371.1C137.2 -353.5 155.3 -350.3 179.2 -351.6C203 -353 232.7 -358.8 255.6 -351.8C278.5 -344.8 294.7 -324.9 299.5 -299.5C304.2 -274 297.4 -243.1 311.5 -226.3C325.5 -209.5 360.4 -206.9 379.7 -193.5C398.9 -180 402.6 -155.8 411.9 -133.8C421.3 -111.9 436.2 -92.2 443.3 -70.2C450.5 -48.3 449.7 -24.1 448.9 0L0 0Z" fill="#ffedd6"></path><path d="M0 -384.7C21.1 -386 42.2 -387.3 59.2 -374.1C76.3 -360.9 89.2 -333.3 103.4 -318.1C117.6 -303 133.1 -300.2 153.6 -301.4C174 -302.5 199.4 -307.6 219.1 -301.6C238.7 -295.5 252.6 -278.5 256.7 -256.7C260.7 -234.9 254.9 -208.4 267 -194C279 -179.6 308.9 -177.3 325.4 -165.8C342 -154.3 345.1 -133.6 353.1 -114.7C361.1 -95.9 373.9 -79 380 -60.2C386.1 -41.4 385.4 -20.7 384.8 0L0 0Z" fill="#ffe1ba"></path><path d="M0 -320.6C17.6 -321.7 35.2 -322.7 49.4 -311.7C63.5 -300.8 74.3 -277.7 86.1 -265.1C98 -252.5 110.9 -250.2 128 -251.2C145 -252.1 166.2 -256.3 182.6 -251.3C199 -246.3 210.5 -232.1 213.9 -213.9C217.3 -195.7 212.4 -173.6 222.5 -161.6C232.5 -149.7 257.4 -147.8 271.2 -138.2C285 -128.6 287.6 -111.3 294.2 -95.6C300.9 -79.9 311.6 -65.8 316.7 -50.2C321.8 -34.5 321.2 -17.2 320.6 0L0 0Z" fill="#ffd69f"></path><path d="M0 -256.5C14.1 -257.3 28.2 -258.2 39.5 -249.4C50.8 -240.6 59.4 -222.2 68.9 -212.1C78.4 -202 88.7 -200.2 102.4 -200.9C116 -201.7 133 -205.1 146.1 -201C159.2 -197 168.4 -185.7 171.1 -171.1C173.8 -156.6 170 -138.9 178 -129.3C186 -119.7 205.9 -118.2 217 -110.5C228 -102.9 230.1 -89 235.4 -76.5C240.7 -63.9 249.3 -52.7 253.3 -40.1C257.4 -27.6 257 -13.8 256.5 0L0 0Z" fill="#ffca84"></path><path d="M0 -192.4C10.6 -193 21.1 -193.6 29.6 -187C38.1 -180.5 44.6 -166.6 51.7 -159.1C58.8 -151.5 66.5 -150.1 76.8 -150.7C87 -151.3 99.7 -153.8 109.5 -150.8C119.4 -147.8 126.3 -139.2 128.3 -128.3C130.4 -117.4 127.5 -104.2 133.5 -97C139.5 -89.8 154.5 -88.7 162.7 -82.9C171 -77.2 172.5 -66.8 176.5 -57.4C180.5 -47.9 187 -39.5 190 -30.1C193.1 -20.7 192.7 -10.3 192.4 0L0 0Z" fill="#ffbf69"></path><path d="M0 -128.2C7 -128.7 14.1 -129.1 19.7 -124.7C25.4 -120.3 29.7 -111.1 34.5 -106C39.2 -101 44.4 -100.1 51.2 -100.5C58 -100.8 66.5 -102.5 73 -100.5C79.6 -98.5 84.2 -92.8 85.6 -85.6C86.9 -78.3 85 -69.5 89 -64.7C93 -59.9 103 -59.1 108.5 -55.3C114 -51.4 115 -44.5 117.7 -38.2C120.4 -32 124.6 -26.3 126.7 -20.1C128.7 -13.8 128.5 -6.9 128.3 0L0 0Z" fill="#fdb44c"></path><path d="M0 -64.1C3.5 -64.3 7 -64.5 9.9 -62.3C12.7 -60.2 14.9 -55.5 17.2 -53C19.6 -50.5 22.2 -50 25.6 -50.2C29 -50.4 33.2 -51.3 36.5 -50.3C39.8 -49.3 42.1 -46.4 42.8 -42.8C43.5 -39.1 42.5 -34.7 44.5 -32.3C46.5 -29.9 51.5 -29.6 54.2 -27.6C57 -25.7 57.5 -22.3 58.8 -19.1C60.2 -16 62.3 -13.2 63.3 -10C64.4 -6.9 64.2 -3.4 64.1 0L0 0Z" fill="#fbae3c"></path></g></svg>