<svg id="visual" viewBox="0 0 960 540" width="960" height="540" xmlns="http://www.w3.org/2000/svg" xmlns:xlink="http://www.w3.org/1999/xlink" version="1.1"><rect x="0" y="0" width="960" height="540" fill="#001220"></rect><defs><linearGradient id="grad1_0" x1="43.8%" y1="0%" x2="100%" y2="100%"><stop offset="14.444444444444446%" stop-color="#fbae3c" stop-opacity="1"></stop><stop offset="85.55555555555554%" stop-color="#fbae3c" stop-opacity="1"></stop></linearGradient></defs><defs><linearGradient id="grad1_1" x1="43.8%" y1="0%" x2="100%" y2="100%"><stop offset="14.444444444444446%" stop-color="#fbae3c" stop-opacity="1"></stop><stop offset="85.55555555555554%" stop-color="#f48350" stop-opacity="1"></stop></linearGradient></defs><defs><linearGradient id="grad1_2" x1="43.8%" y1="0%" x2="100%" y2="100%"><stop offset="14.444444444444446%" stop-color="#d96162" stop-opacity="1"></stop><stop offset="85.55555555555554%" stop-color="#f48350" stop-opacity="1"></stop></linearGradient></defs><defs><linearGradient id="grad1_3" x1="43.8%" y1="0%" x2="100%" y2="100%"><stop offset="14.444444444444446%" stop-color="#d96162" stop-opacity="1"></stop><stop offset="85.55555555555554%" stop-color="#af4b6d" stop-opacity="1"></stop></linearGradient></defs><defs><linearGradient id="grad1_4" x1="43.8%" y1="0%" x2="100%" y2="100%"><stop offset="14.444444444444446%" stop-color="#7c3e6b" stop-opacity="1"></stop><stop offset="85.55555555555554%" stop-color="#af4b6d" stop-opacity="1"></stop></linearGradient></defs><defs><linearGradient id="grad1_5" x1="43.8%" y1="0%" x2="100%" y2="100%"><stop offset="14.444444444444446%" stop-color="#7c3e6b" stop-opacity="1"></stop><stop offset="85.55555555555554%" stop-color="#49335c" stop-opacity="1"></stop></linearGradient></defs><defs><linearGradient id="grad1_6" x1="43.8%" y1="0%" x2="100%" y2="100%"><stop offset="14.444444444444446%" stop-color="#1d2540" stop-opacity="1"></stop><stop offset="85.55555555555554%" stop-color="#49335c" stop-opacity="1"></stop></linearGradient></defs><defs><linearGradient id="grad1_7" x1="43.8%" y1="0%" x2="100%" y2="100%"><stop offset="14.444444444444446%" stop-color="#1d2540" stop-opacity="1"></stop><stop offset="85.55555555555554%" stop-color="#001220" stop-opacity="1"></stop></linearGradient></defs><defs><linearGradient id="grad2_0" x1="0%" y1="0%" x2="56.3%" y2="100%"><stop offset="14.444444444444446%" stop-color="#fbae3c" stop-opacity="1"></stop><stop offset="85.55555555555554%" stop-color="#fbae3c" stop-opacity="1"></stop></linearGradient></defs><defs><linearGradient id="grad2_1" x1="0%" y1="0%" x2="56.3%" y2="100%"><stop offset="14.444444444444446%" stop-color="#f48350" stop-opacity="1"></stop><stop offset="85.55555555555554%" stop-color="#fbae3c" stop-opacity="1"></stop></linearGradient></defs><defs><linearGradient id="grad2_2" x1="0%" y1="0%" x2="56.3%" y2="100%"><stop offset="14.444444444444446%" stop-color="#f48350" stop-opacity="1"></stop><stop offset="85.55555555555554%" stop-color="#d96162" stop-opacity="1"></stop></linearGradient></defs><defs><linearGradient id="grad2_3" x1="0%" y1="0%" x2="56.3%" y2="100%"><stop offset="14.444444444444446%" stop-color="#af4b6d" stop-opacity="1"></stop><stop offset="85.55555555555554%" stop-color="#d96162" stop-opacity="1"></stop></linearGradient></defs><defs><linearGradient id="grad2_4" x1="0%" y1="0%" x2="56.3%" y2="100%"><stop offset="14.444444444444446%" stop-color="#af4b6d" stop-opacity="1"></stop><stop offset="85.55555555555554%" stop-color="#7c3e6b" stop-opacity="1"></stop></linearGradient></defs><defs><linearGradient id="grad2_5" x1="0%" y1="0%" x2="56.3%" y2="100%"><stop offset="14.444444444444446%" stop-color="#49335c" stop-opacity="1"></stop><stop offset="85.55555555555554%" stop-color="#7c3e6b" stop-opacity="1"></stop></linearGradient></defs><defs><linearGradient id="grad2_6" x1="0%" y1="0%" x2="56.3%" y2="100%"><stop offset="14.444444444444446%" stop-color="#49335c" stop-opacity="1"></stop><stop offset="85.55555555555554%" stop-color="#1d2540" stop-opacity="1"></stop></linearGradient></defs><defs><linearGradient id="grad2_7" x1="0%" y1="0%" x2="56.3%" y2="100%"><stop offset="14.444444444444446%" stop-color="#001220" stop-opacity="1"></stop><stop offset="85.55555555555554%" stop-color="#1d2540" stop-opacity="1"></stop></linearGradient></defs><g transform="translate(960, 0)"><path d="M0 459C-28.2 447.8 -56.4 436.6 -86 432.5C-115.7 428.4 -146.8 431.4 -175.7 424.1C-204.5 416.7 -231.2 399 -249.5 373.3C-267.7 347.7 -277.6 314.1 -284.3 284.3C-290.9 254.4 -294.4 228.4 -311.8 208.3C-329.2 188.3 -360.7 174.2 -366.8 151.9C-372.9 129.7 -353.7 99.3 -364.9 72.6C-376 45.9 -417.5 22.9 -459 0L0 0Z" fill="#0c1c30"></path><path d="M0 401.6C-24.7 391.8 -49.3 382 -75.3 378.5C-101.2 374.9 -128.4 377.5 -153.7 371.1C-179 364.6 -202.3 349.1 -218.3 326.7C-234.3 304.2 -242.9 274.8 -248.7 248.7C-254.6 222.6 -257.6 199.9 -272.8 182.3C-288.1 164.7 -315.6 152.4 -320.9 132.9C-326.3 113.5 -309.5 86.8 -319.2 63.5C-329 40.2 -365.3 20.1 -401.6 0L0 0Z" fill="#312c4f"></path><path d="M0 344.3C-21.1 335.9 -42.3 327.5 -64.5 324.4C-86.8 321.3 -110.1 323.6 -131.7 318C-153.4 312.5 -173.4 299.2 -187.1 280C-200.8 260.8 -208.2 235.6 -213.2 213.2C-218.2 190.8 -220.8 171.3 -233.9 156.3C-246.9 141.2 -270.5 130.6 -275.1 113.9C-279.7 97.3 -265.3 74.4 -273.6 54.4C-282 34.4 -313.1 17.2 -344.2 0L0 0Z" fill="#623965"></path><path d="M0 286.9C-17.6 279.9 -35.2 272.9 -53.8 270.3C-72.3 267.8 -91.7 269.6 -109.8 265C-127.8 260.4 -144.5 249.4 -155.9 233.3C-167.3 217.3 -173.5 196.3 -177.7 177.7C-181.8 159 -184 142.8 -194.9 130.2C-205.8 117.7 -225.4 108.9 -229.2 95C-233.1 81 -221.1 62 -228 45.4C-235 28.7 -260.9 14.3 -286.9 0L0 0Z" fill="#96446e"></path><path d="M0 229.5C-14.1 223.9 -28.2 218.3 -43 216.3C-57.8 214.2 -73.4 215.7 -87.8 212C-102.3 208.4 -115.6 199.5 -124.7 186.7C-133.9 173.8 -138.8 157 -142.1 142.1C-145.5 127.2 -147.2 114.2 -155.9 104.2C-164.6 94.1 -180.3 87.1 -183.4 76C-186.4 64.8 -176.9 49.6 -182.4 36.3C-188 22.9 -208.8 11.5 -229.5 0L0 0Z" fill="#c55469"></path><path d="M0 172.1C-10.6 167.9 -21.1 163.7 -32.3 162.2C-43.4 160.7 -55 161.8 -65.9 159C-76.7 156.3 -86.7 149.6 -93.5 140C-100.4 130.4 -104.1 117.8 -106.6 106.6C-109.1 95.4 -110.4 85.7 -116.9 78.1C-123.5 70.6 -135.2 65.3 -137.5 57C-139.8 48.6 -132.6 37.2 -136.8 27.2C-141 17.2 -156.6 8.6 -172.1 0L0 0Z" fill="#e9705a"></path><path d="M0 114.8C-7 112 -14.1 109.2 -21.5 108.1C-28.9 107.1 -36.7 107.9 -43.9 106C-51.1 104.2 -57.8 99.7 -62.4 93.3C-66.9 86.9 -69.4 78.5 -71.1 71.1C-72.7 63.6 -73.6 57.1 -78 52.1C-82.3 47.1 -90.2 43.5 -91.7 38C-93.2 32.4 -88.4 24.8 -91.2 18.1C-94 11.5 -104.4 5.7 -114.7 0L0 0Z" fill="#fa9845"></path><path d="M0 57.4C-3.5 56 -7 54.6 -10.8 54.1C-14.5 53.6 -18.3 53.9 -22 53C-25.6 52.1 -28.9 49.9 -31.2 46.7C-33.5 43.5 -34.7 39.3 -35.5 35.5C-36.4 31.8 -36.8 28.6 -39 26C-41.2 23.5 -45.1 21.8 -45.8 19C-46.6 16.2 -44.2 12.4 -45.6 9.1C-47 5.7 -52.2 2.9 -57.4 0L0 0Z" fill="#fbae3c"></path></g><g transform="translate(0, 540)"><path d="M0 -459C30.8 -451.4 61.6 -443.8 84.3 -423.7C106.9 -403.6 121.4 -370.9 152.3 -367.7C183.2 -364.5 230.6 -390.8 250 -374.2C269.5 -357.5 261 -298 263 -263C265.1 -228.1 277.6 -217.8 315.1 -210.6C352.6 -203.3 415.1 -199.2 424.1 -175.7C433 -152.1 388.5 -109.2 385.4 -76.7C382.4 -44.2 420.7 -22.1 459 0L0 0Z" fill="#0c1c30"></path><path d="M0 -401.6C27 -395 53.9 -388.3 73.7 -370.7C93.6 -353.1 106.2 -324.5 133.3 -321.7C160.3 -318.9 201.7 -341.9 218.8 -327.4C235.8 -312.8 228.4 -260.7 230.2 -230.2C232 -199.6 242.9 -190.6 275.7 -184.2C308.5 -177.9 363.2 -174.3 371.1 -153.7C378.9 -133.1 340 -95.5 337.3 -67.1C334.6 -38.6 368.1 -19.3 401.6 0L0 0Z" fill="#312c4f"></path><path d="M0 -344.2C23.1 -338.6 46.2 -332.9 63.2 -317.8C80.2 -302.7 91 -278.2 114.2 -275.8C137.4 -273.4 172.9 -293.1 187.5 -280.6C202.1 -268.1 195.7 -223.5 197.3 -197.3C198.8 -171.1 208.2 -163.3 236.3 -157.9C264.5 -152.5 311.3 -149.4 318 -131.7C324.8 -114.1 291.4 -81.9 289.1 -57.5C286.8 -33.1 315.5 -16.6 344.3 0L0 0Z" fill="#623965"></path><path d="M0 -286.9C19.3 -282.1 38.5 -277.4 52.7 -264.8C66.8 -252.2 75.9 -231.8 95.2 -229.8C114.5 -227.8 144.1 -244.2 156.3 -233.9C168.4 -223.5 163.1 -186.2 164.4 -164.4C165.7 -142.6 173.5 -136.1 197 -131.6C220.4 -127.1 259.4 -124.5 265 -109.8C270.6 -95.1 242.8 -68.2 240.9 -47.9C239 -27.6 262.9 -13.8 286.9 0L0 0Z" fill="#96446e"></path><path d="M0 -229.5C15.4 -225.7 30.8 -221.9 42.1 -211.8C53.5 -201.8 60.7 -185.4 76.2 -183.9C91.6 -182.3 115.3 -195.4 125 -187.1C134.7 -178.8 130.5 -149 131.5 -131.5C132.5 -114.1 138.8 -108.9 157.6 -105.3C176.3 -101.7 207.5 -99.6 212 -87.8C216.5 -76.1 194.3 -54.6 192.7 -38.3C191.2 -22.1 210.3 -11 229.5 0L0 0Z" fill="#c55469"></path><path d="M0 -172.1C11.6 -169.3 23.1 -166.4 31.6 -158.9C40.1 -151.3 45.5 -139.1 57.1 -137.9C68.7 -136.7 86.5 -146.5 93.8 -140.3C101 -134.1 97.9 -111.7 98.6 -98.6C99.4 -85.5 104.1 -81.7 118.2 -79C132.2 -76.2 155.7 -74.7 159 -65.9C162.4 -57 145.7 -40.9 144.5 -28.8C143.4 -16.6 157.8 -8.3 172.1 0L0 0Z" fill="#e9705a"></path><path d="M0 -114.7C7.7 -112.9 15.4 -111 21.1 -105.9C26.7 -100.9 30.3 -92.7 38.1 -91.9C45.8 -91.1 57.6 -97.7 62.5 -93.5C67.4 -89.4 65.2 -74.5 65.8 -65.8C66.3 -57 69.4 -54.4 78.8 -52.6C88.2 -50.8 103.8 -49.8 106 -43.9C108.3 -38 97.1 -27.3 96.4 -19.2C95.6 -11 105.2 -5.5 114.8 0L0 0Z" fill="#fa9845"></path><path d="M0 -57.4C3.9 -56.4 7.7 -55.5 10.5 -53C13.4 -50.4 15.2 -46.4 19 -46C22.9 -45.6 28.8 -48.8 31.3 -46.8C33.7 -44.7 32.6 -37.2 32.9 -32.9C33.1 -28.5 34.7 -27.2 39.4 -26.3C44.1 -25.4 51.9 -24.9 53 -22C54.1 -19 48.6 -13.6 48.2 -9.6C47.8 -5.5 52.6 -2.8 57.4 0L0 0Z" fill="#fbae3c"></path></g></svg>